<svg width="234" height="33" viewBox="0 0 234 33" fill="none" xmlns="http://www.w3.org/2000/svg">
<path d="M225.854 8.77783C228.054 8.77783 229.825 9.42683 231.167 10.7248C232.509 12.0228 233.18 13.8708 233.18 16.2688C233.18 17.3028 232.993 18.3698 232.619 19.4698C232.267 20.5698 231.739 21.5378 231.035 22.3738C230.331 23.0558 229.506 23.6058 228.56 24.0238C227.636 24.4198 226.657 24.6178 225.623 24.6178C223.423 24.6178 221.652 23.9688 220.31 22.6708C218.968 21.3728 218.297 19.5248 218.297 17.1268C218.297 16.1148 218.484 15.0588 218.858 13.9588C219.232 12.8588 219.771 11.8908 220.475 11.0548C221.179 10.3728 221.993 9.82283 222.917 9.40483C223.863 8.98683 224.842 8.77783 225.854 8.77783ZM223.049 15.5428C223.049 17.6328 223.456 19.1948 224.27 20.2288C225.106 21.2628 226.327 21.8788 227.933 22.0768C228.087 21.4168 228.208 20.6798 228.296 19.8658C228.384 19.0518 228.428 18.3808 228.428 17.8528C228.428 15.7408 228.01 14.1788 227.174 13.1668C226.36 12.1328 225.161 11.5168 223.577 11.3188C223.423 12.0008 223.291 12.7488 223.181 13.5628C223.093 14.3768 223.049 15.0368 223.049 15.5428Z" fill="#2F3E46"/>
<path d="M217.897 21.5162L213.871 24.4202C212.243 24.4202 211.055 24.0242 210.307 23.2322C209.581 22.4182 209.218 21.1202 209.218 19.3382V10.5602H207.007V9.50416C207.931 8.99816 208.932 8.28316 210.01 7.35916C211.11 6.41316 212.111 5.42316 213.013 4.38916L214.102 4.71916L213.937 9.27316H217.798V10.6592L213.871 10.5932V18.1832C213.871 19.2392 214.069 20.0092 214.465 20.4932C214.883 20.9772 215.433 21.2192 216.115 21.2192L217.336 20.5262L217.897 21.5162Z" fill="#2F3E46"/>
<path d="M199.656 11.7478C199.656 12.3418 199.887 12.8808 200.349 13.3648C200.833 13.8488 201.559 14.4208 202.527 15.0808C203.715 15.8948 204.617 16.6318 205.233 17.2918C205.849 17.9518 206.157 18.7658 206.157 19.7338C206.157 20.5918 205.904 21.3948 205.398 22.1428C204.892 22.8908 204.177 23.4958 203.253 23.9578C202.329 24.3978 201.273 24.6178 200.085 24.6178C198.941 24.6178 197.852 24.3428 196.818 23.7928C195.806 23.2428 195.058 22.5388 194.574 21.6808L197.412 19.4038C198.292 21.0538 199.194 22.4068 200.118 23.4628C200.492 23.1768 200.8 22.8468 201.042 22.4728C201.306 22.0768 201.438 21.6918 201.438 21.3178C201.438 20.7018 201.207 20.1738 200.745 19.7338C200.305 19.2718 199.612 18.7218 198.666 18.0838C197.896 17.5778 197.28 17.1378 196.818 16.7638C196.356 16.3898 195.96 15.9388 195.63 15.4108C195.322 14.8828 195.168 14.2888 195.168 13.6288C195.168 12.8148 195.432 12.0338 195.96 11.2858C196.51 10.5378 197.269 9.93283 198.237 9.47083C199.205 9.00883 200.305 8.77783 201.537 8.77783C202.483 8.77783 203.374 8.98683 204.21 9.40483C205.068 9.80083 205.761 10.3068 206.289 10.9228L203.715 13.4638C202.659 12.1218 201.493 10.9228 200.217 9.86683C199.843 10.3508 199.656 10.9778 199.656 11.7478ZM198.567 24.1228H198.6H198.567Z" fill="#2F3E46"/>
<path d="M194.229 21.9119L189.642 24.5189C188.938 24.1449 188.421 23.6389 188.091 23.0009C187.761 22.3409 187.596 21.5049 187.596 20.4929L184.758 24.618C182.69 24.618 181.161 24.1229 180.171 23.1329C179.181 22.1209 178.686 20.5699 178.686 18.4799V10.3289L177.465 10.2299V9.27295H183.339V17.1599C183.339 18.1499 183.592 18.9199 184.098 19.4699C184.626 19.9979 185.319 20.2729 186.177 20.2949L187.596 18.9749V10.3289L186.408 10.2299V9.27295H192.249V18.5789C192.249 19.3929 192.293 19.9979 192.381 20.3939C192.491 20.7899 192.656 21.131 192.876 21.417L193.866 20.9219L194.229 21.9119Z" fill="#2F3E46"/>
<path d="M172.413 22.2751C173.645 22.3631 174.69 22.6161 175.548 23.0341C176.428 23.4521 177.11 24.0021 177.594 24.6841C177.176 25.9381 176.505 27.1701 175.581 28.3801C174.679 29.5901 173.579 30.5801 172.281 31.3501C171.005 32.1421 169.63 32.5381 168.156 32.5381C166.726 32.5381 165.571 32.1751 164.691 31.4491C163.833 30.7451 163.404 29.8431 163.404 28.7431C163.404 27.8191 163.635 26.7741 164.097 25.6081C163.305 25.2341 162.645 24.5631 162.117 23.5951L165.45 19.8661C164.614 19.4041 163.954 18.7881 163.47 18.0181C163.008 17.2261 162.777 16.3461 162.777 15.3781C162.777 14.4761 162.964 13.5851 163.338 12.7051C163.712 11.8251 164.185 11.0771 164.757 10.4611C165.307 9.99912 166.044 9.60312 166.968 9.27312C167.914 8.94312 168.904 8.77812 169.938 8.77812C170.686 8.77812 171.335 8.85512 171.885 9.00912L174.624 4.35612C175.064 4.26812 175.526 4.22412 176.01 4.22412C176.934 4.22412 177.825 4.41112 178.683 4.78512L176.373 9.07512C175.669 8.78912 174.976 8.64612 174.294 8.64612C174.074 8.64612 173.788 8.66812 173.436 8.71212L172.941 9.37212C173.931 9.81212 174.712 10.4501 175.284 11.2861C175.856 12.1221 176.142 13.0901 176.142 14.1901C176.142 15.0481 175.944 15.9061 175.548 16.7641C175.174 17.6001 174.712 18.3591 174.162 19.0411C173.612 19.5251 172.864 19.9321 171.918 20.2621C170.994 20.5701 170.026 20.7241 169.014 20.7241C168.046 20.7241 167.155 20.5701 166.341 20.2621L165.582 21.1861C165.714 21.3841 166 21.5601 166.44 21.7141C166.88 21.8681 167.408 21.9561 168.024 21.9781L172.413 22.2751ZM171.786 15.4111C171.786 14.0471 171.434 12.9801 170.73 12.2101C170.026 11.4401 169.036 10.9671 167.76 10.7911C167.342 12.0011 167.133 13.1231 167.133 14.1571C167.133 15.4771 167.485 16.5221 168.189 17.2921C168.893 18.0621 169.894 18.5351 171.192 18.7111C171.588 17.6771 171.786 16.5771 171.786 15.4111ZM169.971 29.0731C170.631 29.0731 171.28 28.9961 171.918 28.8421C172.556 28.7101 173.095 28.5451 173.535 28.3471C173.975 28.1491 174.239 27.9731 174.327 27.8191C174.195 27.5111 173.799 27.2031 173.139 26.8951C172.501 26.6091 171.599 26.4331 170.433 26.3671L166.77 26.1691C166.352 26.1471 165.846 26.0921 165.252 26.0041C165.362 26.8841 165.835 27.6101 166.671 28.1821C167.529 28.7761 168.629 29.0731 169.971 29.0731Z" fill="#2F3E46"/>
<path d="M148.752 23.1663L149.973 23.0673L149.808 3.30028L148.554 3.56428L148.224 2.60728L154.329 0.759277L154.791 1.55128L154.626 23.0673L155.847 23.1663V24.1233H148.752V23.1663Z" fill="#2F3E46"/>
<path d="M141.487 8.77783C143.423 8.77783 144.941 9.48183 146.041 10.8898C147.163 12.2758 147.713 14.1568 147.691 16.5328L138.583 16.8298C138.737 18.1278 139.188 19.1178 139.936 19.7998C140.684 20.4818 141.674 20.8228 142.906 20.8228C144.622 20.8228 146.019 20.3498 147.097 19.4038L147.691 19.9318C146.921 21.4058 145.876 22.5608 144.556 23.3968C143.258 24.2108 141.872 24.6178 140.398 24.6178C138.396 24.6178 136.801 23.9578 135.613 22.6378C134.447 21.2958 133.864 19.4918 133.864 17.2258C133.864 15.8838 134.128 14.5528 134.656 13.2328C135.206 11.9128 135.899 10.8128 136.735 9.93283C137.307 9.60283 138.044 9.32783 138.946 9.10783C139.848 8.88783 140.695 8.77783 141.487 8.77783ZM142.807 15.4438C142.785 13.9038 142.565 12.6828 142.147 11.7808C141.729 10.8788 141.135 10.3398 140.365 10.1638C139.815 10.7358 139.364 11.5388 139.012 12.5728C138.682 13.5848 138.517 14.6298 138.517 15.7078V15.8068L142.807 15.4438Z" fill="#2F3E46"/>
<path d="M132.99 21.8463L128.172 24.4533C127.578 24.1013 127.138 23.6393 126.852 23.0673C126.588 22.4733 126.434 21.7143 126.39 20.7903L123.123 24.6183C121.847 24.6183 120.714 24.3323 119.724 23.7603C118.756 23.1663 117.997 22.3633 117.447 21.3513C116.897 20.3173 116.622 19.1513 116.622 17.8533C116.622 16.7313 116.809 15.5433 117.183 14.2893C117.557 13.0353 118.008 12.0563 118.536 11.3523C118.954 10.7583 119.713 10.1863 120.813 9.63628C121.913 9.06428 122.837 8.77828 123.585 8.77828C124.245 8.77828 125.147 8.88828 126.291 9.10828L126.225 3.30028L124.971 3.56428L124.641 2.60728L130.746 0.759277L131.208 1.55128L131.01 18.6453C131.01 19.4373 131.054 20.0313 131.142 20.4273C131.23 20.8013 131.384 21.1313 131.604 21.4173L132.594 20.9553L132.99 21.8463ZM121.374 15.8733C121.374 16.8853 121.539 17.7653 121.869 18.5133C122.199 19.2613 122.628 19.8333 123.156 20.2293C123.706 20.6253 124.289 20.8233 124.905 20.8233L126.39 19.3383L126.324 12.6723C124.894 11.9903 123.519 11.5283 122.199 11.2863C121.649 12.5403 121.374 14.0693 121.374 15.8733Z" fill="#2F3E46"/>
<path d="M110.009 23.1659V24.1229H102.947V23.1659L104.168 23.0669V16.1039C104.168 15.1359 103.893 14.3879 103.343 13.8599C102.815 13.3319 102.078 13.0569 101.132 13.0349L100.076 14.1239L99.944 23.0669L101.165 23.1659V24.1229H94.07V23.1659L95.291 23.0669L95.192 11.2529L93.938 11.5499L93.608 10.5599L98.822 8.94291L99.977 12.6389L102.716 8.71191C104.806 8.71191 106.346 9.20691 107.336 10.1969C108.326 11.1869 108.821 12.7159 108.821 14.7839V23.0669L110.009 23.1659Z" fill="#2F3E46"/>
<path d="M85.6687 8.77783C87.8687 8.77783 89.6397 9.42683 90.9817 10.7248C92.3237 12.0228 92.9947 13.8708 92.9947 16.2688C92.9947 17.3028 92.8077 18.3698 92.4337 19.4698C92.0817 20.5698 91.5537 21.5378 90.8497 22.3738C90.1457 23.0558 89.3207 23.6058 88.3747 24.0238C87.4507 24.4198 86.4717 24.6178 85.4377 24.6178C83.2377 24.6178 81.4667 23.9688 80.1247 22.6708C78.7827 21.3728 78.1117 19.5248 78.1117 17.1268C78.1117 16.1148 78.2987 15.0588 78.6727 13.9588C79.0467 12.8588 79.5857 11.8908 80.2897 11.0548C80.9937 10.3728 81.8077 9.82283 82.7317 9.40483C83.6777 8.98683 84.6567 8.77783 85.6687 8.77783ZM82.8637 15.5428C82.8637 17.6328 83.2707 19.1948 84.0847 20.2288C84.9207 21.2628 86.1417 21.8788 87.7477 22.0768C87.9017 21.4168 88.0227 20.6798 88.1107 19.8658C88.1987 19.0518 88.2427 18.3808 88.2427 17.8528C88.2427 15.7408 87.8247 14.1788 86.9887 13.1668C86.1747 12.1328 84.9757 11.5168 83.3917 11.3188C83.2377 12.0008 83.1057 12.7488 82.9957 13.5628C82.9077 14.3768 82.8637 15.0368 82.8637 15.5428ZM83.7877 6.23683L88.0447 0.527832L89.8597 2.40883L84.7117 7.32583L83.7877 6.23683Z" fill="#2F3E46"/>
<path d="M65.1981 20.691L73.7451 13.2659L66.3531 14.1569L66.2211 15.3119H65.2641V9.27295H76.4181V13.299L67.5411 20.2949L75.6591 19.0079L75.7581 18.084H76.7151V24.1229L65.1981 24.156V20.691Z" fill="#2F3E46"/>
<path d="M64.0849 22.4068L59.2339 24.6838C58.6399 24.2658 58.2329 23.6938 58.0129 22.9678C57.2209 23.4518 56.4179 23.8478 55.6039 24.1558C54.8119 24.4638 54.1189 24.6178 53.5249 24.6178C52.6229 24.6178 51.8859 24.2988 51.3139 23.6608C50.7419 23.0228 50.4559 22.2088 50.4559 21.2188C50.4559 20.7788 50.4999 20.3058 50.5879 19.7998C50.6979 19.2718 50.8299 18.8538 50.9839 18.5458L57.9799 17.4238L58.0459 16.4668C58.0899 15.4768 57.8809 14.7068 57.4189 14.1568C56.9569 13.5848 56.2089 13.2988 55.1749 13.2988C54.7129 13.2988 54.2289 13.3538 53.7229 13.4638C53.2169 13.5518 52.7879 13.6728 52.4359 13.8268L51.9079 14.9488L51.0169 14.6188L52.5349 9.86683C54.2289 9.14083 55.8349 8.77783 57.3529 8.77783C58.9149 8.77783 60.1909 9.19583 61.1809 10.0318C62.1709 10.8458 62.6659 12.1328 62.6659 13.8928L62.6329 14.5528L62.3029 19.0078L62.2369 20.1958C62.2369 20.5918 62.2699 20.9108 62.3359 21.1528C62.4019 21.3728 62.5119 21.6038 62.6659 21.8458L63.6889 21.4498L64.0849 22.4068ZM56.5939 22.2418C56.9459 22.2418 57.3529 22.1098 57.8149 21.8458L57.7819 21.1528L57.8149 20.4268L57.9139 18.5458L55.3729 19.1398C55.2849 19.4258 55.2409 19.8108 55.2409 20.2948C55.2409 20.9548 55.3729 21.4498 55.6369 21.7798C55.9009 22.0878 56.2199 22.2418 56.5939 22.2418Z" fill="#2F3E46"/>
<path d="M42.8736 11.7478C42.8736 12.3418 43.1046 12.8808 43.5666 13.3648C44.0506 13.8488 44.7766 14.4208 45.7446 15.0808C46.9326 15.8948 47.8346 16.6318 48.4506 17.2918C49.0666 17.9518 49.3746 18.7658 49.3746 19.7338C49.3746 20.5918 49.1216 21.3948 48.6156 22.1428C48.1096 22.8908 47.3946 23.4958 46.4706 23.9578C45.5466 24.3978 44.4906 24.6178 43.3026 24.6178C42.1586 24.6178 41.0696 24.3428 40.0356 23.7928C39.0236 23.2428 38.2756 22.5388 37.7916 21.6808L40.6296 19.4038C41.5096 21.0538 42.4116 22.4068 43.3356 23.4628C43.7096 23.1768 44.0176 22.8468 44.2596 22.4728C44.5236 22.0768 44.6556 21.6918 44.6556 21.3178C44.6556 20.7018 44.4246 20.1738 43.9626 19.7338C43.5226 19.2718 42.8296 18.7218 41.8836 18.0838C41.1136 17.5778 40.4976 17.1378 40.0356 16.7638C39.5736 16.3898 39.1776 15.9388 38.8476 15.4108C38.5396 14.8828 38.3856 14.2888 38.3856 13.6288C38.3856 12.8148 38.6496 12.0338 39.1776 11.2858C39.7276 10.5378 40.4866 9.93283 41.4546 9.47083C42.4226 9.00883 43.5226 8.77783 44.7546 8.77783C45.7006 8.77783 46.5916 8.98683 47.4276 9.40483C48.2856 9.80083 48.9786 10.3068 49.5066 10.9228L46.9326 13.4638C45.8766 12.1218 44.7106 10.9228 43.4346 9.86683C43.0606 10.3508 42.8736 10.9778 42.8736 11.7478ZM41.7846 24.1228H41.8176H41.7846Z" fill="#2F3E46"/>
<path d="M31.665 22.4068L26.814 24.6838C26.22 24.2658 25.813 23.6938 25.593 22.9678C24.801 23.4518 23.998 23.8478 23.184 24.1558C22.392 24.4638 21.699 24.6178 21.105 24.6178C20.203 24.6178 19.466 24.2988 18.894 23.6608C18.322 23.0228 18.036 22.2088 18.036 21.2188C18.036 20.7788 18.08 20.3058 18.168 19.7998C18.278 19.2718 18.41 18.8538 18.564 18.5458L25.56 17.4238L25.626 16.4668C25.67 15.4768 25.461 14.7068 24.999 14.1568C24.537 13.5848 23.789 13.2988 22.755 13.2988C22.293 13.2988 21.809 13.3538 21.303 13.4638C20.797 13.5518 20.368 13.6728 20.016 13.8268L19.488 14.9488L18.597 14.6188L20.115 9.86683C21.809 9.14083 23.415 8.77783 24.933 8.77783C26.495 8.77783 27.771 9.19583 28.761 10.0318C29.751 10.8458 30.246 12.1328 30.246 13.8928L30.213 14.5528L29.883 19.0078L29.817 20.1958C29.817 20.5918 29.85 20.9108 29.916 21.1528C29.982 21.3728 30.092 21.6038 30.246 21.8458L31.269 21.4498L31.665 22.4068ZM24.174 22.2418C24.526 22.2418 24.933 22.1098 25.395 21.8458L25.362 21.1528L25.395 20.4268L25.494 18.5458L22.953 19.1398C22.865 19.4258 22.821 19.8108 22.821 20.2948C22.821 20.9548 22.953 21.4498 23.217 21.7798C23.481 22.0878 23.8 22.2418 24.174 22.2418Z" fill="#2F3E46"/>
<path d="M17.3487 17.5562V24.1232H0.617676V22.9682L2.23468 22.9352V3.20118L0.617676 3.16818V2.01318H11.3097V3.16818L7.71268 3.20118V22.8692C10.4627 21.9012 13.2237 20.6912 15.9957 19.2392L16.0617 17.5892L17.3487 17.5562Z" fill="#2F3E46"/>
</svg>
